<svg width="420px" height="122px" xmlns="http://www.w3.org/2000/svg" viewBox="150 50 200 120" style="background: none;"
  preserveAspectRatio="xMidYMid">
  <defs>
    <filter id="editing-crystal" x="-100%" y="-100%" width="300%" height="300%">
      <feMorphology operator="dilate" radius="2" in="SourceGraphic" result="border"></feMorphology>
      <feFlood flood-color="#ffc6c6" result="black"></feFlood>
      <feMorphology operator="dilate" radius="2" in="SourceGraphic" result="erode"></feMorphology>
      <feGaussianBlur in="erode" stdDeviation="4" result="blur"></feGaussianBlur>
      <feOffset in="blur" dx="2" dy="2" result="offset"></feOffset>
      <feComposite operator="atop" in="offset" in2="black" result="merge"></feComposite>
      <feComposite operator="in" in="merge" in2="SourceGraphic" result="inner-shadow"></feComposite>
      <feGaussianBlur in="SourceGraphic" stdDeviation="2.5" result="shadow1"></feGaussianBlur>
      <feOffset in="shadow1" dx="0" dy="5" result="shadow"></feOffset>
      <feSpecularLighting in="SourceGraphic" result="specular" surfaceScale="1.5" specularConstant="100"
        specularExponent="10" lighting-color="#654c4c">
        <fePointLight x="250" y="-300" z="-400"></fePointLight>
      </feSpecularLighting>
      <feGaussianBlur in="specular" stdDeviation="1" result="specular2"></feGaussianBlur>
      <feComposite operator="in" in="specular2" in2="SourceAlpha" result="specular3"></feComposite>
      <feMerge result="merge">
        <feMergeNode in="border"></feMergeNode>
        <feMergeNode in="inner-shadow"></feMergeNode>
        <feMergeNode in="specular3"></feMergeNode>
      </feMerge>
      <feComponentTransfer in="merge" result="final">
        <feFuncA type="linear" slope="0.9" intercept="0"></feFuncA>
      </feComponentTransfer>
      <feMerge>
        <feMergeNode in="shadow"></feMergeNode>
        <feMergeNode in="final"></feMergeNode>
      </feMerge>
    </filter>
  </defs>
  <g filter="url(#editing-crystal)">
    <g transform="translate(65.70997679233551, 104.47000122070312)">
      <path
        d="M34.50-13.25L34.50-13.25L34.50-13.25Q36.16-12.03 36.16-9.44L36.16-9.44L36.16-9.44Q36.16-6.85 35.04-5.02L35.04-5.02L35.04-5.02Q33.92-3.20 31.74-1.79L31.74-1.79L31.74-1.79Q27.07 1.22 18.91 1.22L18.91 1.22L18.91 1.22Q10.75 1.22 6.30-3.04L6.30-3.04L6.30-3.04Q1.86-7.30 1.86-14.85L1.86-14.85L1.86-14.85Q1.86-25.54 7.42-33.66L7.42-33.66L7.42-33.66Q11.65-39.68 19.20-42.24L19.20-42.24L19.20-42.24Q23.10-43.52 26.94-43.52L26.94-43.52L26.94-43.52Q30.78-43.52 33.15-43.01L33.15-43.01L33.15-43.01Q35.52-42.50 37.31-41.47L37.31-41.47L37.31-41.47Q41.22-39.23 41.22-35.65L41.22-35.65L41.22-35.65Q41.22-32.38 38.14-29.95L38.14-29.95L38.14-29.95Q35.33-27.78 33.02-27.78L33.02-27.78L33.02-27.78Q30.72-27.78 29.76-28.10L29.76-28.10L29.76-28.10Q30.02-30.40 30.02-31.90L30.02-31.90L30.02-31.90Q30.02-33.41 29.95-34.50L29.95-34.50L29.95-34.50Q29.89-35.58 29.57-36.61L29.57-36.61L29.57-36.61Q28.93-38.98 26.98-38.98L26.98-38.98L26.98-38.98Q25.02-38.98 23.07-37.15L23.07-37.15L23.07-37.15Q21.12-35.33 19.46-32.26L19.46-32.26L19.46-32.26Q15.68-25.28 15.68-17.02L15.68-17.02L15.68-17.02Q15.68-13.06 17.92-10.78L17.92-10.78L17.92-10.78Q20.16-8.51 24.96-8.51L24.96-8.51L24.96-8.51Q28.54-8.51 31.94-10.88L31.94-10.88L31.94-10.88Q33.41-11.90 34.50-13.25ZM61.50-17.98L61.50-17.98L61.50-17.98Q63.81-22.08 63.81-26.24L63.81-26.24L63.81-26.24Q63.81-28.99 61.82-28.99L61.82-28.99L61.82-28.99Q60.29-28.99 58.69-26.37L58.69-26.37L58.69-26.37Q57.02-23.74 56.51-20.35L56.51-20.35L53.18 0L39.94 1.28L46.46-32.64L57.02-33.92L55.87-27.46L55.87-27.46Q59.01-33.92 66.05-33.92L66.05-33.92L66.05-33.92Q69.76-33.92 71.78-32L71.78-32L71.78-32Q73.79-30.08 73.79-26.14L73.79-26.14L73.79-26.14Q73.79-22.21 71.20-19.71L71.20-19.71L71.20-19.71Q68.61-17.22 64.19-17.22L64.19-17.22L64.19-17.22Q62.27-17.22 61.50-17.98ZM95.17-7.23L95.17-7.23L95.17-7.23Q91.84-3.78 85.76-3.78L85.76-3.78L85.76-3.78Q78.14-3.78 76.54-9.34L76.54-9.34L76.54-9.34Q76.03-11.01 76.03-12.86L76.03-12.86L76.03-12.86Q76.03-14.72 76.42-16.64L76.42-16.64L79.42-32.64L92.42-33.92L88.90-15.30L88.90-15.30Q88.77-14.46 88.58-13.57L88.58-13.57L88.58-13.57Q88.38-12.67 88.38-11.74L88.38-11.74L88.38-11.74Q88.38-10.82 88.70-10.21L88.70-10.21L88.70-10.21Q89.02-9.60 89.47-9.22L89.47-9.22L89.47-9.22Q90.24-8.70 91.62-8.70L91.62-8.70L91.62-8.70Q92.99-8.70 94.18-10.37L94.18-10.37L94.18-10.37Q95.36-12.03 95.94-14.91L95.94-14.91L99.46-32.64L112.06-33.92L107.26-8.77L107.26-8.77Q104.90 3.52 100.03 8.38L100.03 8.38L100.03 8.38Q97.54 10.88 94.30 11.87L94.30 11.87L94.30 11.87Q91.07 12.86 86.91 12.86L86.91 12.86L86.91 12.86Q80.19 12.86 76.35 10.75L76.35 10.75L76.35 10.75Q72.51 8.64 72.51 5.12L72.51 5.12L72.51 5.12Q72.51 2.50 74.50 0.99L74.50 0.99L74.50 0.99Q76.48-0.51 79.55-0.51L79.55-0.51L79.55-0.51Q82.24-0.51 84.29 0.64L84.29 0.64L84.29 0.64Q85.50 1.34 86.08 2.24L86.08 2.24L86.08 2.24Q84.61 3.52 84.61 5.63L84.61 5.63L84.61 5.63Q84.61 8.45 87.17 8.45L87.17 8.45L87.17 8.45Q91.39 8.45 93.82-1.28L93.82-1.28L93.82-1.28Q94.53-4.16 95.17-7.23ZM144.19-4.38L144.19-4.38L144.19-4.38Q141.50-1.66 137.82-0.19L137.82-0.19L137.82-0.19Q134.14 1.28 130.50 1.28L130.50 1.28L130.50 1.28Q126.85 1.28 125.57 0.64L125.57 0.64L123.58 11.52L110.59 12.80L119.42-32.64L129.86-33.73L129.02-29.31L129.02-29.31Q131.71-33.86 137.28-33.86L137.28-33.86L137.28-33.86Q143.55-33.86 146.88-29.82L146.88-29.82L146.88-29.82Q149.82-26.18 149.82-20.61L149.82-20.61L149.82-20.61Q149.82-15.04 148.35-11.07L148.35-11.07L148.35-11.07Q146.88-7.10 144.19-4.38ZM129.73-22.34L126.34-3.58L126.34-3.58Q127.68-2.43 129.34-2.43L129.34-2.43L129.34-2.43Q131.01-2.43 131.97-3.07L131.97-3.07L131.97-3.07Q132.93-3.71 133.63-4.99L133.63-4.99L133.63-4.99Q135.55-8.45 137.09-18.94L137.09-18.94L137.09-18.94Q137.54-22.02 137.54-25.02L137.54-25.02L137.54-25.02Q137.54-28.03 136.86-28.99L136.86-28.99L136.86-28.99Q136.19-29.95 134.91-29.95L134.91-29.95L134.91-29.95Q131.01-29.95 129.73-22.34L129.73-22.34ZM154.69-6.40L154.69-6.40L154.69-6.40Q154.69-8.13 155.58-12.48L155.58-12.48L158.98-29.76L155.20-29.76L155.46-31.68L155.46-31.68Q163.14-33.98 170.56-39.62L170.56-39.62L173.63-39.62L172.10-32.64L177.09-32.64L176.51-29.76L171.58-29.76L168.32-12.48L168.32-12.48Q167.49-8.51 167.49-7.17L167.49-7.17L167.49-7.17Q167.49-4.10 170.18-3.46L170.18-3.46L170.18-3.46Q169.54-1.28 167.23 0L167.23 0L167.23 0Q164.93 1.28 161.66 1.28L161.66 1.28L161.66 1.28Q158.40 1.28 156.54-0.77L156.54-0.77L156.54-0.77Q154.69-2.82 154.69-6.40ZM190.46 1.28L190.46 1.28L190.46 1.28Q176.38 1.28 176.38-11.97L176.38-11.97L176.38-11.97Q176.38-21.38 181.57-27.46L181.57-27.46L181.57-27.46Q187.07-33.92 196.61-33.92L196.61-33.92L196.61-33.92Q203.52-33.92 207.04-30.72L207.04-30.72L207.04-30.72Q210.56-27.52 210.56-20.80L210.56-20.80L210.56-20.80Q210.56-10.56 205.06-4.61L205.06-4.61L205.06-4.61Q199.68 1.28 190.46 1.28ZM192.13-26.56L192.13-26.56L192.13-26.56Q191.36-24.83 190.75-22.24L190.75-22.24L190.75-22.24Q190.14-19.65 189.38-15.55L189.38-15.55L189.38-15.55Q188.61-11.46 188.61-6.40L188.61-6.40L188.61-6.40Q188.61-4.74 189.15-3.65L189.15-3.65L189.15-3.65Q189.70-2.56 191.17-2.56L191.17-2.56L191.17-2.56Q192.64-2.56 193.57-3.26L193.57-3.26L193.57-3.26Q194.50-3.97 195.20-5.63L195.20-5.63L195.20-5.63Q196.48-8.58 197.50-14.05L197.50-14.05L197.50-14.05Q198.53-19.52 198.62-21.89L198.62-21.89L198.62-21.89Q198.72-24.26 198.72-26.02L198.72-26.02L198.72-26.02Q198.72-27.78 198.21-28.93L198.21-28.93L198.21-28.93Q197.70-30.08 196.26-30.08L196.26-30.08L196.26-30.08Q194.82-30.08 193.86-29.18L193.86-29.18L193.86-29.18Q192.90-28.29 192.13-26.56ZM247.68-33.92L247.68-33.92L247.68-33.92Q249.98-33.92 251.78-33.41L251.78-33.41L251.78-33.41Q251.84-33.66 251.97-34.37L251.97-34.37L252.29-36.35L252.29-36.35Q252.54-37.63 252.93-39.74L252.93-39.74L253.95-44.80L266.69-46.08L259.58-8.96L259.58-8.96Q259.52-8.58 259.52-7.94L259.52-7.94L259.52-6.91L259.52-6.91Q259.52-5.50 260.22-4.45L260.22-4.45L260.22-4.45Q260.93-3.39 262.08-3.39L262.08-3.39L262.08-3.39Q260.80-0.38 256.90 0.90L256.90 0.90L256.90 0.90Q255.55 1.28 253.66 1.28L253.66 1.28L253.66 1.28Q251.78 1.28 250.05 0.29L250.05 0.29L250.05 0.29Q248.32-0.70 247.81-2.37L247.81-2.37L247.81-2.37Q246.78-0.70 244.74 0.29L244.74 0.29L244.74 0.29Q242.69 1.28 239.71 1.28L239.71 1.28L239.71 1.28Q236.74 1.28 234.27 0.51L234.27 0.51L234.27 0.51Q231.81-0.26 230.27-1.92L230.27-1.92L230.27-1.92Q227.46-5.18 227.46-12.61L227.46-12.61L227.46-12.61Q227.46-22.21 233.09-28.03L233.09-28.03L233.09-28.03Q238.72-33.92 247.68-33.92ZM247.23-30.08L247.23-30.08L247.23-30.08Q244.86-30.08 243.58-27.52L243.58-27.52L243.58-27.52Q242.30-24.96 240.99-18.62L240.99-18.62L240.99-18.62Q239.68-12.29 239.68-6.59L239.68-6.59L239.68-6.59Q239.68-2.69 241.98-2.69L241.98-2.69L241.98-2.69Q244.03-2.69 245.47-4.74L245.47-4.74L245.47-4.74Q246.91-6.78 247.49-10.18L247.49-10.18L250.94-28.93L250.94-28.93Q249.60-30.08 247.23-30.08ZM293.44-10.82L293.44-10.82L293.44-10.82Q295.04-9.73 295.04-7.33L295.04-7.33L295.04-7.33Q295.04-4.93 293.82-3.39L293.82-3.39L293.82-3.39Q292.61-1.86 290.62-0.83L290.62-0.83L290.62-0.83Q286.53 1.28 282.11 1.28L282.11 1.28L282.11 1.28Q277.70 1.28 275.10 0.32L275.10 0.32L275.10 0.32Q272.51-0.64 270.78-2.43L270.78-2.43L270.78-2.43Q267.39-5.82 267.39-12.03L267.39-12.03L267.39-12.03Q267.39-21.70 272.64-27.58L272.64-27.58L272.64-27.58Q278.27-33.92 288.06-33.92L288.06-33.92L288.06-33.92Q294.14-33.92 297.15-31.36L297.15-31.36L297.15-31.36Q299.39-29.44 299.39-26.30L299.39-26.30L299.39-26.30Q299.39-15.04 279.94-15.04L279.94-15.04L279.94-15.04Q279.68-13.38 279.68-11.97L279.68-11.97L279.68-11.97Q279.68-9.02 280.99-7.90L280.99-7.90L280.99-7.90Q282.30-6.78 284.74-6.78L284.74-6.78L284.74-6.78Q287.17-6.78 289.76-7.90L289.76-7.90L289.76-7.90Q292.35-9.02 293.44-10.82ZM280.38-17.79L280.38-17.79L280.38-17.79Q284.93-17.79 287.55-20.61L287.55-20.61L287.55-20.61Q290.18-23.30 290.18-27.58L290.18-27.58L290.18-27.58Q290.18-29.06 289.63-29.86L289.63-29.86L289.63-29.86Q289.09-30.66 288-30.66L288-30.66L288-30.66Q286.91-30.66 285.98-30.24L285.98-30.24L285.98-30.24Q285.06-29.82 284.10-28.42L284.10-28.42L284.10-28.42Q281.73-25.22 280.38-17.79ZM324.80-31.55L324.80-31.55L324.80-31.55Q326.91-33.92 330.56-33.92L330.56-33.92L330.56-33.92Q332.80-33.92 334.53-32.70L334.53-32.70L334.53-32.70Q336.26-31.49 336.26-29.22L336.26-29.22L336.26-29.22Q336.26-26.94 335.55-24.51L335.55-24.51L335.55-24.51Q334.85-22.08 333.76-19.58L333.76-19.58L333.76-19.58Q331.58-14.72 328.58-10.69L328.58-10.69L328.58-10.69Q324.35-4.86 320.29-1.79L320.29-1.79L320.29-1.79Q316.22 1.28 311.81 1.28L311.81 1.28L311.81 1.28Q308.22 1.28 306.05 0.45L306.05 0.45L306.05 0.45Q305.66-12.99 305.18-17.79L305.18-17.79L305.18-17.79Q304.70-22.59 304.32-25.22L304.32-25.22L304.32-25.22Q303.68-30.34 301.76-31.55L301.76-31.55L301.76-31.55Q303.23-32.83 304.67-33.38L304.67-33.38L304.67-33.38Q306.11-33.92 309.09-33.92L309.09-33.92L309.09-33.92Q312.06-33.92 314.18-31.58L314.18-31.58L314.18-31.58Q316.29-29.25 316.70-25.12L316.70-25.12L316.70-25.12Q317.12-20.99 317.12-16L317.12-16L317.12-16Q317.12-11.01 316.74-4.99L316.74-4.99L316.74-4.99Q318.72-6.40 320.83-10.69L320.83-10.69L320.83-10.69Q323.71-16.64 324.74-23.81L324.74-23.81L324.74-23.81Q325.06-25.98 325.06-28.29L325.06-28.29L325.06-28.29Q325.06-30.59 324.80-31.55ZM357.12-22.46L357.12-22.46L357.12-22.46Q358.02-24.83 358.02-26.88L358.02-26.88L358.02-26.88Q358.02-30.66 354.94-30.66L354.94-30.66L354.94-30.66Q353.34-30.66 352.03-29.22L352.03-29.22L352.03-29.22Q350.72-27.78 350.72-25.98L350.72-25.98L350.72-25.98Q350.72-24.70 351.74-23.68L351.74-23.68L351.74-23.68Q353.22-22.27 356.99-19.97L356.99-19.97L356.99-19.97Q360.77-17.66 362.21-15.78L362.21-15.78L362.21-15.78Q363.65-13.89 363.65-11.30L363.65-11.30L363.65-11.30Q363.65-8.70 362.40-6.34L362.40-6.34L362.40-6.34Q361.15-3.97 358.91-2.30L358.91-2.30L358.91-2.30Q354.11 1.28 346.43 1.28L346.43 1.28L346.43 1.28Q342.27 1.28 339.07-0.90L339.07-0.90L339.07-0.90Q335.87-3.01 335.87-5.50L335.87-5.50L335.87-5.50Q335.87-8 337.70-9.47L337.70-9.47L337.70-9.47Q339.52-10.94 342.21-10.94L342.21-10.94L342.21-10.94Q344.90-10.94 346.56-9.92L346.56-9.92L346.56-9.92Q345.73-7.81 345.73-6.40L345.73-6.40L345.73-6.40Q345.73-2.18 349.31-2.18L349.31-2.18L349.31-2.18Q350.85-2.18 351.87-3.14L351.87-3.14L351.87-3.14Q352.90-4.10 352.90-5.76L352.90-5.76L352.90-5.76Q352.90-9.02 347.39-12.48L347.39-12.48L347.39-12.48Q342.91-15.42 341.89-16.58L341.89-16.58L341.89-16.58Q340.16-18.62 340.16-21.18L340.16-21.18L340.16-21.18Q340.16-23.74 341.38-26.18L341.38-26.18L341.38-26.18Q342.59-28.61 344.83-30.34L344.83-30.34L344.83-30.34Q349.50-33.92 357.63-33.92L357.63-33.92L357.63-33.92Q361.79-33.92 364.26-32.26L364.26-32.26L364.26-32.26Q366.72-30.59 366.72-27.78L366.72-27.78L366.72-27.78Q366.72-24.96 365.02-23.36L365.02-23.36L365.02-23.36Q363.33-21.76 360.26-21.76L360.26-21.76L360.26-21.76Q358.14-21.76 357.12-22.46Z"
        fill="#0015ea" stroke="#88e0eb" stroke-width="1.5"></path>
    </g>
  </g>
  <style>
    text {
      font-size: 64px;
      font-family: Arial Black;
      dominant-baseline: central;
      text-anchor: middle;
    }
  </style>
</svg>